HIERARCHY
ROOT Hips
{
  OFFSET 5.80788e-005 67.184 3.4734
  CHANNELS 6 Xposition Yposition Zposition Zrotation Xrotation Yrotation
  JOINT Chest
  {
    OFFSET 0 8.7983 -4.7612
    CHANNELS 3 Zrotation Xrotation Yrotation
    JOINT Chest2
    {
      OFFSET 0 8.0291 0.4195
      CHANNELS 3 Zrotation Xrotation Yrotation
      JOINT Chest3
      {
        OFFSET 0 9.9351 -2.2114
        CHANNELS 3 Zrotation Xrotation Yrotation
        JOINT Neck
        {
          OFFSET 0 22.3885 -0.4656
          CHANNELS 3 Zrotation Xrotation Yrotation
          JOINT Head
          {
            OFFSET -0.0001 12.643 3.4389
            CHANNELS 3 Zrotation Xrotation Yrotation
            End Site
            {
              OFFSET 0.0001 17.6655 0.5274
            }
          }
        }
        JOINT LeftCollar
        {
          OFFSET 2.2603 21.606 7.4023
          CHANNELS 3 Zrotation Xrotation Yrotation
          JOINT LeftShoulder
          {
            OFFSET 13.5163 -1.1332 -5.0146
            CHANNELS 3 Zrotation Xrotation Yrotation
            JOINT LeftElbow
            {
              OFFSET -0.0995 -28.05 -0.2431
              CHANNELS 3 Zrotation Xrotation Yrotation
              JOINT LeftWrist
              {
                OFFSET 0.0679 -23.3996 -0.1402
                CHANNELS 3 Zrotation Xrotation Yrotation
                JOINT LeftFinger1
                {
                  OFFSET 0.7932 -9.069 2.5189
                  CHANNELS 3 Zrotation Xrotation Yrotation
                  JOINT LeftFinger11
                  {
                    OFFSET -0.8272 -3.3923 0.5977
                    CHANNELS 3 Zrotation Xrotation Yrotation
                    JOINT LeftFinger12
                    {
                      OFFSET -0.5649 -2.3158 0.4082
                      CHANNELS 3 Zrotation Xrotation Yrotation
                      End Site
                      {
                        OFFSET -0.4919 -1.6479 0.2673
                      }
                    }
                  }
                }
                JOINT LeftFinger2
                {
                  OFFSET 0.9159 -9.2044 0.2193
                  CHANNELS 3 Zrotation Xrotation Yrotation
                  JOINT LeftFinger21
                  {
                    OFFSET 0.0117 -4.1944 -0.0248
                    CHANNELS 3 Zrotation Xrotation Yrotation
                    JOINT LeftFinger22
                    {
                      OFFSET 0.0071 -2.3249 -0.0142
                      CHANNELS 3 Zrotation Xrotation Yrotation
                      End Site
                      {
                        OFFSET -0.1475 -2.0882 0.0028
                      }
                    }
                  }
                }
                JOINT LeftFinger3
                {
                  OFFSET 0.6113 -8.7231 -2.0637
                  CHANNELS 3 Zrotation Xrotation Yrotation
                  JOINT LeftFinger31
                  {
                    OFFSET -0.1927 -3.8059 -0.2383
                    CHANNELS 3 Zrotation Xrotation Yrotation
                    JOINT LeftFinger32
                    {
                      OFFSET -0.1091 -2.1688 -0.1362
                      CHANNELS 3 Zrotation Xrotation Yrotation
                      End Site
                      {
                        OFFSET -0.2358 -1.9176 -0.0906
                      }
                    }
                  }
                }
                JOINT LeftFinger4
                {
                  OFFSET -0.6151 -8.0947 -3.5641
                  CHANNELS 3 Zrotation Xrotation Yrotation
                  JOINT LeftFinger41
                  {
                    OFFSET -0.4882 -2.341 -0.6462
                    CHANNELS 3 Zrotation Xrotation Yrotation
                    JOINT LeftFinger42
                    {
                      OFFSET -0.3575 -1.7167 -0.4742
                      CHANNELS 3 Zrotation Xrotation Yrotation
                      End Site
                      {
                        OFFSET -0.4187 -1.5237 -0.3496
                      }
                    }
                  }
                }
                JOINT LeftFinger0
                {
                  OFFSET -1.42 -1.8761 1.4223
                  CHANNELS 3 Zrotation Xrotation Yrotation
                  JOINT LeftFinger01
                  {
                    OFFSET -1.1471 -3.4929 2.6334
                    CHANNELS 3 Zrotation Xrotation Yrotation
                    JOINT LeftFinger02
                    {
                      OFFSET -0.823 -2.3 1.6571
                      CHANNELS 3 Zrotation Xrotation Yrotation
                      End Site
                      {
                        OFFSET -0.5822 -1.6914 1.1582
                      }
                    }
                  }
                }
              }
            }
          }
        }
        JOINT RightCollar
        {
          OFFSET -2.2603 21.606 7.4023
          CHANNELS 3 Zrotation Xrotation Yrotation
          JOINT RightShoulder
          {
            OFFSET -13.5187 -1.1334 -5.0155
            CHANNELS 3 Zrotation Xrotation Yrotation
            JOINT RightElbow
            {
              OFFSET 0.0994 -28.0499 -0.2431
              CHANNELS 3 Zrotation Xrotation Yrotation
              JOINT RightWrist
              {
                OFFSET -0.0679 -23.3996 -0.1402
                CHANNELS 3 Zrotation Xrotation Yrotation
                JOINT RightFinger1
                {
                  OFFSET -0.7932 -9.0691 2.5189
                  CHANNELS 3 Zrotation Xrotation Yrotation
                  JOINT RightFinger11
                  {
                    OFFSET 0.8272 -3.3923 0.5977
                    CHANNELS 3 Zrotation Xrotation Yrotation
                    JOINT RightFinger12
                    {
                      OFFSET 0.565 -2.3158 0.4082
                      CHANNELS 3 Zrotation Xrotation Yrotation
                      End Site
                      {
                        OFFSET 0.4919 -1.6479 0.2673
                      }
                    }
                  }
                }
                JOINT RightFinger2
                {
                  OFFSET -0.916 -9.2044 0.2193
                  CHANNELS 3 Zrotation Xrotation Yrotation
                  JOINT RightFinger21
                  {
                    OFFSET -0.0117 -4.1944 -0.0248
                    CHANNELS 3 Zrotation Xrotation Yrotation
                    JOINT RightFinger22
                    {
                      OFFSET -0.0071 -2.3249 -0.0142
                      CHANNELS 3 Zrotation Xrotation Yrotation
                      End Site
                      {
                        OFFSET 0.1475 -2.0882 0.0028
                      }
                    }
                  }
                }
                JOINT RightFinger3
                {
                  OFFSET -0.6113 -8.7231 -2.0637
                  CHANNELS 3 Zrotation Xrotation Yrotation
                  JOINT RightFinger31
                  {
                    OFFSET 0.1927 -3.8059 -0.2383
                    CHANNELS 3 Zrotation Xrotation Yrotation
                    JOINT RightFinger32
                    {
                      OFFSET 0.1091 -2.1688 -0.1362
                      CHANNELS 3 Zrotation Xrotation Yrotation
                      End Site
                      {
                        OFFSET 0.2358 -1.9176 -0.0906
                      }
                    }
                  }
                }
                JOINT RightFinger4
                {
                  OFFSET 0.6151 -8.0947 -3.564
                  CHANNELS 3 Zrotation Xrotation Yrotation
                  JOINT RightFinger41
                  {
                    OFFSET 0.4882 -2.341 -0.6462
                    CHANNELS 3 Zrotation Xrotation Yrotation
                    JOINT RightFinger42
                    {
                      OFFSET 0.3574 -1.7166 -0.4742
                      CHANNELS 3 Zrotation Xrotation Yrotation
                      End Site
                      {
                        OFFSET 0.4187 -1.5237 -0.3496
                      }
                    }
                  }
                }
                JOINT RightFinger0
                {
                  OFFSET 1.4199 -1.8761 1.4221
                  CHANNELS 3 Zrotation Xrotation Yrotation
                  JOINT RightFinger01
                  {
                    OFFSET 1.1472 -3.4929 2.6336
                    CHANNELS 3 Zrotation Xrotation Yrotation
                    JOINT RightFinger02
                    {
                      OFFSET 0.8229 -2.3 1.6571
                      CHANNELS 3 Zrotation Xrotation Yrotation
                      End Site
                      {
                        OFFSET 0.5822 -1.6914 1.1582
                      }
                    }
                  }
                }
              }
            }
          }
        }
      }
    }
  }
  JOINT RightHip
  {
    OFFSET -9.412 3.9771 -0.7758
    CHANNELS 3 Zrotation Xrotation Yrotation
    JOINT RightKnee
    {
      OFFSET -0.7531 -40.938 0
      CHANNELS 3 Zrotation Xrotation Yrotation
      JOINT RightAnkle
      {
        OFFSET 0 -40.1986 0
        CHANNELS 3 Zrotation Xrotation Yrotation
        JOINT RightToe
        {
          OFFSET 0 -4.4182 9.239
          CHANNELS 3 Zrotation Xrotation Yrotation
          End Site
          {
            OFFSET 0 0 6.1981
          }
        }
      }
    }
  }
  JOINT LeftHip
  {
    OFFSET 9.4119 3.9773 -0.7758
    CHANNELS 3 Zrotation Xrotation Yrotation
    JOINT LeftKnee
    {
      OFFSET 0.7532 -40.9383 0
      CHANNELS 3 Zrotation Xrotation Yrotation
      JOINT LeftAnkle
      {
        OFFSET 0 -40.1986 0
        CHANNELS 3 Zrotation Xrotation Yrotation
        JOINT LeftToe
        {
          OFFSET 0 -4.4182 9.239
          CHANNELS 3 Zrotation Xrotation Yrotation
          End Site
          {
            OFFSET 0 0 6.1981
          }
        }
      }
    }
  }
}
MOTION
Frames:	4
Frame Time:	0.0333333
1.63421 26.1827 -0.559202 5.4513e-008 17.024 4.70746e-008 0.23762 0.518912 -0.259915 0.47762 1.03676 -0.522012 0.47762 1.03676 -0.522012 -0.000144081 13.1744 0.000128971 2.95725e-008 -5.44173 2.71035e-007 -5.84671 2.73685 -46.3304 29.5923 34.9908 29.4513 -87.5056 -48.0606 -56.979 42.013 -12.5387 24.7761 -3.64072e-006 4.53938e-006 -1.08104e-006 -7.95139e-016 0 7.95139e-016 -7.95139e-016 0 7.95139e-016 -3.64072e-006 4.53938e-006 -1.08104e-006 -0.0128356 0.00231842 8.79493e-005 -7.95139e-016 6.36111e-015 -1.59028e-015 -3.64072e-006 4.53938e-006 -1.08104e-006 -0.0160347 0.00299049 0.000856439 -2.38542e-015 -1.27222e-014 -0 -3.64072e-006 4.53938e-006 -1.08104e-006 -0.0125792 0.00312413 0.0028344 4.41391e-032 -3.18055e-015 7.95139e-016 -3.64072e-006 4.53938e-006 -1.08104e-006 -7.95139e-016 0 7.95139e-016 -7.95139e-016 0 7.95139e-016 3.60108 2.48138 40.1933 -34.732 32.6571 -22.6583 87.5132 -48.3695 57.1966 -38.8747 -11.988 -26.2021 -2.38542e-015 -3.18055e-015 -0 -7.95139e-016 0 7.95139e-016 -7.95139e-016 0 -7.95139e-016 -2.38542e-015 -3.18055e-015 -0 0.0129475 0.00232334 -8.50232e-005 -1.59028e-015 6.36111e-015 2.38542e-015 -2.38542e-015 -3.18055e-015 -0 0.0163102 0.00303594 -0.000866653 -1.59028e-015 -3.18055e-015 -3.18055e-015 -2.38542e-015 -3.18055e-015 -0 0.0145394 0.00367028 -0.00325 2.92091e-006 1.86576e-007 -1.42514e-006 -2.38542e-015 -3.18055e-015 -0 -7.95139e-016 0 7.95139e-016 -7.95139e-016 0 -7.95139e-016 -7.60404 -19.0013 -17.0257 -171.191 75.7086 168.529 19.6433 41.6601 -26.0312 -3.73376e-006 2.87184e-006 -5.37043e-007 7.65442 -19.4662 17.0287 171.407 75.5436 -168.699 -19.4816 41.5599 26.0023 -7.15625e-015 2.10157e-008 -0 
1.63421 26.1745 -0.69285 6.67686e-008 17.375 -6.87379e-008 0.238463 0.381739 -0.25899 0.478659 0.762397 -0.519577 0.478664 0.762406 -0.519583 0.000342963 13.8795 -0.000302424 7.1789e-008 -5.24907 4.19539e-007 -5.95241 2.97684 -46.2503 29.686 34.9681 29.4081 -87.5049 -48.0605 -56.9779 41.9138 -12.4346 24.7218 -1.76556e-031 6.36111e-015 1.59028e-015 -7.06225e-031 1.27222e-014 3.18055e-015 7.95139e-016 1.27222e-014 7.95139e-016 -1.76556e-031 6.36111e-015 1.59028e-015 -0.01283 0.00233768 9.04182e-005 -1.76556e-031 -3.18055e-015 -3.18055e-015 -1.76556e-031 6.36111e-015 1.59028e-015 -0.0160383 0.00299146 0.00085672 2.73458e-006 -4.04057e-006 -2.02786e-006 -1.76556e-031 6.36111e-015 1.59028e-015 -0.0126049 0.0031333 0.00283461 -2.38542e-015 6.36111e-015 -7.95139e-016 -1.76556e-031 6.36111e-015 1.59028e-015 -7.06225e-031 1.27222e-014 3.18055e-015 7.95139e-016 1.27222e-014 7.95139e-016 3.75854 2.7193 40.1433 -34.7315 32.6579 -22.6586 87.5141 -48.3696 57.198 -38.87 -11.8794 -26.13 -7.95139e-016 -9.54166e-015 -1.59028e-015 -1.59028e-015 -3.18055e-015 -0 -7.95139e-016 -3.18055e-015 -1.59028e-015 -7.95139e-016 -9.54166e-015 -1.59028e-015 0.0129335 0.00231368 -8.64593e-005 -1.76556e-031 6.36111e-015 1.59028e-015 -7.95139e-016 -9.54166e-015 -1.59028e-015 0.0162997 0.00301575 -0.00087822 -2.38542e-015 0 -3.18055e-015 -7.95139e-016 -9.54166e-015 -1.59028e-015 0.0146206 0.00367364 -0.00327907 7.95139e-016 6.36111e-015 -1.59028e-015 -7.95139e-016 -9.54166e-015 -1.59028e-015 -1.59028e-015 -3.18055e-015 -0 -7.95139e-016 -3.18055e-015 -1.59028e-015 -7.64508 -19.4998 -17.118 -171.242 75.5447 168.569 19.6492 41.6562 -26.0393 -5.56597e-015 -2.01839e-008 -0 7.69703 -19.9655 17.1223 171.454 75.3814 -168.736 -19.4874 41.5563 26.0103 -1.68299e-006 -5.17966e-006 -1.66711e-007 
1.63421 26.1665 -0.826543 2.08774e-008 17.7259 -4.00076e-008 0.239439 0.244789 -0.258202 0.479979 0.488488 -0.517424 0.479979 0.488498 -0.517424 1.03918e-005 14.5832 -8.66126e-006 4.82704e-007 -5.0565 -6.06379e-008 -6.05914 3.21549 -46.1692 29.7778 34.9475 29.366 -87.5069 -48.0606 -56.9809 41.8148 -12.3303 24.6678 -3.19647e-006 6.23289e-006 -4.61073e-008 -7.95139e-016 6.36111e-015 -2.38542e-015 -2.38542e-015 9.54166e-015 -1.59028e-015 -3.19647e-006 6.23289e-006 -4.61073e-008 -0.0128005 0.0023133 9.31231e-005 9.54977e-007 6.08711e-006 1.49737e-006 -3.19647e-006 6.23289e-006 -4.61073e-008 -0.0160527 0.0029874 0.000860606 3.18055e-015 1.27222e-014 7.95139e-016 -3.19647e-006 6.23289e-006 -4.61073e-008 -0.0126221 0.00312175 0.00283993 -8.82781e-032 6.36111e-015 7.95139e-016 -3.19647e-006 6.23289e-006 -4.61073e-008 -7.95139e-016 6.36111e-015 -2.38542e-015 -2.38542e-015 9.54166e-015 -1.59028e-015 3.91555 2.95602 40.0934 -34.7313 32.6582 -22.6587 87.5144 -48.3696 57.1984 -38.8655 -11.7707 -26.0581 -3.53113e-031 -1.27222e-014 -1.59028e-015 -2.64834e-031 -6.36111e-015 -2.38542e-015 -2.20695e-031 -3.18055e-015 -3.97569e-015 -3.53113e-031 -1.27222e-014 -1.59028e-015 0.0129637 0.00231835 -8.12347e-005 -7.95139e-016 0 1.59028e-015 -3.53113e-031 -1.27222e-014 -1.59028e-015 0.016341 0.00302921 -0.000879489 -4.41391e-031 6.36111e-015 3.97569e-015 -3.53113e-031 -1.27222e-014 -1.59028e-015 0.0145921 0.0036797 -0.00326884 -7.95139e-016 -9.54166e-015 -0 -3.53113e-031 -1.27222e-014 -1.59028e-015 -2.64834e-031 -6.36111e-015 -2.38542e-015 -2.20695e-031 -3.18055e-015 -3.97569e-015 -7.687 -19.9979 -17.211 -171.291 75.3812 168.608 19.6552 41.6525 -26.0473 7.15625e-015 0 -1.59028e-015 7.74052 -20.4643 17.2166 171.499 75.2195 -168.771 -19.4933 41.5525 26.0183 -1.26854e-006 -4.17533e-006 5.68956e-007 
1.63422 26.1589 -0.960277 1.00827e-008 18.0768 2.5796e-007 0.240315 0.107751 -0.257286 0.481113 0.214406 -0.515024 0.481106 0.21439 -0.515017 0.000309294 15.2871 -0.000265615 1.79793e-007 -4.864 -1.85957e-007 -6.16572 3.45456 -46.0881 29.8726 34.9233 29.3223 -87.5046 -48.0605 -56.9775 41.7159 -12.2261 24.6139 3.97569e-015 -6.36111e-015 1.59028e-015 3.18055e-015 -9.54166e-015 2.38542e-015 2.38542e-015 -6.36111e-015 -0 3.97569e-015 -6.36111e-015 1.59028e-015 -0.0128519 0.00233938 8.69322e-005 -8.10984e-007 -2.23816e-006 -1.539e-006 3.97569e-015 -6.36111e-015 1.59028e-015 -0.0160167 0.00298938 0.000857881 5.29669e-031 1.90833e-014 -1.59028e-015 3.97569e-015 -6.36111e-015 1.59028e-015 -0.012625 0.00312592 0.0028354 1.59028e-015 -3.18055e-015 7.95139e-016 3.97569e-015 -6.36111e-015 1.59028e-015 3.18055e-015 -9.54166e-015 2.38542e-015 2.38542e-015 -6.36111e-015 -0 4.07331 3.19307 40.0423 -34.7317 32.6575 -22.6585 87.5136 -48.3696 57.1973 -38.8611 -11.6621 -25.9861 -3.18055e-015 1.59028e-014 -3.97569e-015 7.95139e-016 3.18055e-015 -3.18055e-015 7.95139e-016 9.54166e-015 -0 -3.18055e-015 1.59028e-014 -3.97569e-015 0.0129169 0.00230941 -8.29406e-005 7.95139e-016 -9.54166e-015 -0 -3.18055e-015 1.59028e-014 -3.97569e-015 0.0163283 0.00302503 -0.000878119 -7.95139e-016 -1.27222e-014 -1.59028e-015 -3.18055e-015 1.59028e-014 -3.97569e-015 0.014597 0.00366824 -0.00326231 -3.22035e-006 -2.4395e-006 -1.4237e-006 -3.18055e-015 1.59028e-014 -3.97569e-015 7.95139e-016 3.18055e-015 -3.18055e-015 7.95139e-016 9.54166e-015 -0 -7.72969 -20.4964 -17.3046 -171.34 75.2171 168.646 19.6612 41.6487 -26.0554 -4.18736e-006 5.06459e-006 1.49583e-006 7.78484 -20.9635 17.3116 171.544 75.0572 -168.806 -19.4992 41.5489 26.0263 -4.13913e-007 2.0811e-008 -7.34899e-007 
